<?xml version="1.0" encoding="UTF-8"?>
<svg version="1.1" xmlns="http://www.w3.org/2000/svg" width="512" height="512">
<path d="M0 0 C2.8657754 2.67798955 5.79725752 5.2609627 8.76171875 7.828125 C11.05351905 9.83514538 13.30215502 11.88652851 15.5546875 13.9375 C18.95302302 17.00996773 22.41809273 19.94692622 25.9921875 22.8125 C31.75165176 27.46908812 37.12167449 32.49084177 42.51953125 37.5546875 C45.56355763 40.40796778 48.67185627 43.17438009 51.83203125 45.8984375 C54.10423261 47.87790126 56.32678622 49.9083317 58.5546875 51.9375 C61.93159732 54.99108867 65.37435882 57.90679205 68.9296875 60.75 C74.25958128 65.05462426 79.20935088 69.69446658 84.18310547 74.39794922 C88.64320931 78.59415506 93.21412575 82.56414178 98.06106567 86.31414795 C100.7421875 88.5625 100.7421875 88.5625 102.78121948 90.90777588 C107.05699432 95.66380547 110.62653304 98.0390647 116.95511055 98.52482224 C121.10070053 98.65307331 125.22954733 98.58205576 129.375 98.484375 C131.17999068 98.47731855 132.98500533 98.47497933 134.79000854 98.47711182 C139.51905728 98.47342697 144.24609352 98.42056501 148.97460938 98.3526001 C156.54746474 98.24761685 164.12009979 98.19847347 171.69363022 98.18637848 C174.32664243 98.17213657 176.95758516 98.12485952 179.59011841 98.07440186 C194.31412255 97.91584506 194.31412255 97.91584506 200.7421875 103.5625 C204.9477376 108.10006721 206.98939299 111.69759754 207.00224972 117.90496445 C207.00931531 118.99481447 207.0163809 120.08466449 207.0236606 121.20754027 C207.02124552 122.40440782 207.01883043 123.60127536 207.01634216 124.83441162 C207.02157884 126.10625313 207.02681552 127.37809464 207.03221089 128.6884768 C207.04640382 132.22130667 207.04805394 135.75404861 207.04761398 139.2869029 C207.04926106 143.09617403 207.06232557 146.90540882 207.07380676 150.71466064 C207.09666472 159.04527323 207.10457827 167.37586036 207.10963321 175.70650005 C207.1128894 180.90809954 207.11941142 186.10969162 207.1266346 191.31128693 C207.14620181 205.71278012 207.16260523 220.11426643 207.16551113 234.51577377 C207.1656987 235.4375155 207.16588627 236.35925723 207.16607952 237.30893053 C207.16644578 239.17753363 207.16680947 241.04613672 207.16717064 242.91473982 C207.16735345 243.84231904 207.16753626 244.76989826 207.16772461 245.72558594 C207.16799543 247.11865292 207.16799543 247.11865292 207.16827173 248.53986266 C207.17181337 263.58834167 207.19883457 278.63667758 207.2362225 293.68510696 C207.27430022 309.13480945 207.29366857 324.58444092 207.29397064 340.03419137 C207.29455535 348.70879667 207.30305552 357.38323128 207.33196831 366.05779266 C207.35647511 373.44443508 207.36376992 380.83084456 207.34872078 388.21751663 C207.34154882 391.98570182 207.34242095 395.75342698 207.36513138 399.52156067 C207.38952957 403.60893025 207.37509382 407.69525208 207.35691833 411.78265381 C207.3701183 412.97059847 207.38331827 414.15854312 207.39691824 415.3824861 C207.3255994 422.3959177 206.39438328 427.17060229 201.7421875 432.5625 C194.73804829 439.05414122 187.96331969 439.71701624 178.6548481 439.69113445 C177.85340943 439.69288749 177.05197075 439.69464053 176.22624606 439.69644669 C173.53599613 439.70110514 170.84580028 439.69864158 168.1555481 439.69621277 C166.20916508 439.69808081 164.26278245 439.70038149 162.31640041 439.70307809 C156.96385431 439.70920322 151.61132381 439.70906166 146.258775 439.70788372 C140.48770992 439.70767989 134.71664989 439.71319669 128.94558716 439.71794128 C117.63790484 439.72625212 106.33022773 439.72899631 95.02254261 439.72955366 C85.83320265 439.73002858 76.64386441 439.73208212 67.45452499 439.73525429 C45.64982417 439.7426283 23.84512468 439.74877899 2.04042244 439.74825573 C0.99445414 439.74823236 0.99445414 439.74823236 -0.07264483 439.74820852 C-3.60692743 439.74812541 -7.14121003 439.74802637 -10.67549263 439.74792381 C-11.37741653 439.74790387 -12.07934044 439.74788392 -12.80253476 439.74786337 C-14.22199553 439.74782294 -15.6414563 439.74778114 -17.06091707 439.74773798 C-39.14852812 439.74712514 -61.23612382 439.75463345 -83.32373047 439.76831055 C-108.13767925 439.78366951 -132.95161787 439.79226422 -157.76557171 439.79134732 C-170.90468424 439.79101504 -184.04377946 439.793776 -197.18288803 439.80452538 C-208.36827375 439.81361762 -219.55363431 439.81581611 -230.73902212 439.80901595 C-236.44727362 439.8057444 -242.15547681 439.80571696 -247.86372375 439.8143692 C-253.08829331 439.82220698 -258.31277603 439.8208307 -263.5373434 439.81208507 C-265.42827677 439.81054408 -267.31921653 439.8123887 -269.21014236 439.81794515 C-271.77979709 439.82499645 -274.34914647 439.81971847 -276.91879082 439.81138897 C-277.65331067 439.81635715 -278.38783053 439.82132533 -279.14460856 439.82644406 C-286.71723357 439.77453151 -293.18889492 438.39004808 -299.2578125 433.5625 C-303.41782825 428.94026028 -305.50492033 425.47455484 -305.51787472 419.22003555 C-305.52494031 418.13018553 -305.5320059 417.04033551 -305.5392856 415.91745973 C-305.53687052 414.72059218 -305.53445543 413.52372464 -305.53196716 412.29058838 C-305.53720384 411.01874687 -305.54244052 409.74690536 -305.54783589 408.4365232 C-305.56202882 404.90369333 -305.56367894 401.37095139 -305.56323898 397.8380971 C-305.56488606 394.02882597 -305.57795057 390.21959118 -305.58943176 386.41033936 C-305.61228972 378.07972677 -305.62020327 369.74913964 -305.62525821 361.41849995 C-305.6285144 356.21690046 -305.63503642 351.01530838 -305.6422596 345.81371307 C-305.66182681 331.41221988 -305.67823023 317.01073357 -305.68113613 302.60922623 C-305.6813237 301.6874845 -305.68151127 300.76574277 -305.68170452 299.81606947 C-305.68207078 297.94746637 -305.68243447 296.07886328 -305.68279564 294.21026018 C-305.68297845 293.28268096 -305.68316126 292.35510174 -305.68334961 291.39941406 C-305.68362043 290.00634708 -305.68362043 290.00634708 -305.68389673 288.58513734 C-305.68743837 273.53665833 -305.71445957 258.48832242 -305.7518475 243.43989304 C-305.78992522 227.99019055 -305.80929357 212.54055908 -305.80959564 197.09080863 C-305.81018035 188.41620333 -305.81868052 179.74176872 -305.84759331 171.06720734 C-305.87210011 163.68056492 -305.87939492 156.29415544 -305.86434578 148.90748337 C-305.85717382 145.13929818 -305.85804595 141.37157302 -305.88075638 137.60343933 C-305.90515457 133.51606975 -305.89071882 129.42974792 -305.87254333 125.34234619 C-305.8857433 124.15440153 -305.89894327 122.96645688 -305.91254324 121.7425139 C-305.8412244 114.7290823 -304.91000828 109.95439771 -300.2578125 104.5625 C-294.80792282 99.51138273 -290.79856164 98.2669028 -283.45092773 98.40234375 C-282.66822006 98.40836105 -281.88551239 98.41437836 -281.0790863 98.420578 C-279.38103869 98.43375896 -277.68301815 98.45088526 -275.98504448 98.47149658 C-272.36263967 98.51018707 -268.74051055 98.51223913 -265.1179285 98.51629639 C-258.37882801 98.52401867 -251.64066865 98.5453292 -244.90209961 98.63427734 C-240.20903248 98.69480682 -235.51801704 98.70598865 -230.82463264 98.68557739 C-229.04453209 98.68684697 -227.26434446 98.70592931 -225.48464775 98.74386597 C-216.43689762 98.9288361 -209.83809815 99.05046391 -202.90649414 92.7578125 C-201.34326542 91.03836955 -199.7930271 89.30700114 -198.2578125 87.5625 C-196.53580872 86.11193203 -194.78872554 84.69010415 -193.0078125 83.3125 C-187.69210092 79.02955524 -182.76304903 74.40518961 -177.80786133 69.71801758 C-173.3904468 65.56107838 -168.81914768 61.69589824 -164.078125 57.91015625 C-159.36863102 53.9899265 -154.94810741 49.76130954 -150.48046875 45.5703125 C-147.43644237 42.71703222 -144.32814373 39.95061991 -141.16796875 37.2265625 C-138.89576739 35.24709874 -136.67321378 33.2166683 -134.4453125 31.1875 C-131.04697698 28.11503227 -127.58190727 25.17807378 -124.0078125 22.3125 C-118.24483952 17.65307504 -112.87201097 12.62717348 -107.46875 7.5625 C-103.81006666 4.13393581 -100.06703547 0.82251892 -96.2578125 -2.4375 C-95.2510749 -3.32135589 -94.24458674 -4.20549592 -93.23828125 -5.08984375 C-61.60031648 -32.6837528 -29.41028314 -27.57759487 0 0 Z M-84.8515625 10.33203125 C-87.7024617 13.07236266 -90.66144387 15.59906554 -93.7578125 18.0625 C-99.44916893 22.61894784 -104.72193532 27.57042221 -110.03515625 32.5546875 C-113.07918263 35.40796778 -116.18748127 38.17438009 -119.34765625 40.8984375 C-121.61985761 42.87790126 -123.84241122 44.9083317 -126.0703125 46.9375 C-129.44722232 49.99108867 -132.88998382 52.90679205 -136.4453125 55.75 C-141.77840644 60.05720882 -146.73136971 64.69977162 -151.70751953 69.40673828 C-156.11756241 73.55677355 -160.68017453 77.41675735 -165.4140625 81.1953125 C-171.96335761 86.6470609 -178.2330459 92.5377334 -184.2578125 98.5625 C-95.1578125 98.5625 -6.0578125 98.5625 85.7421875 98.5625 C82.19792649 95.01823899 78.62917854 91.56189871 74.9296875 88.1875 C74.39907715 87.70273193 73.8684668 87.21796387 73.32177734 86.71850586 C68.14805522 82.00304566 62.89402176 77.39177521 57.5625 72.85546875 C50.72591768 67.03220634 44.00788424 61.11620857 37.4140625 55.01953125 C34.55896424 52.3940096 31.65453506 49.8358216 28.72265625 47.296875 C26.43085595 45.28985462 24.18221998 43.23847149 21.9296875 41.1875 C18.53135198 38.11503227 15.06628227 35.17807378 11.4921875 32.3125 C5.73209305 27.65540236 0.36182274 22.63210532 -5.0390625 17.5703125 C-8.70042983 14.13936609 -12.42844227 10.80505122 -16.2578125 7.5625 C-17.13050781 6.81097656 -18.00320313 6.05945312 -18.90234375 5.28515625 C-24.10380467 0.89486707 -28.91094385 -2.89875254 -35.2578125 -5.4375 C-35.9178125 -5.1075 -36.5778125 -4.7775 -37.2578125 -4.4375 C-36.83628906 -3.96699219 -36.41476562 -3.49648438 -35.98046875 -3.01171875 C-35.43261719 -2.38910156 -34.88476562 -1.76648438 -34.3203125 -1.125 C-33.77503906 -0.51011719 -33.22976563 0.10476562 -32.66796875 0.73828125 C-28.84476876 5.6840829 -29.56800759 12.66842442 -30.2578125 18.5625 C-31.95705887 23.23039023 -34.35854348 26.33221749 -38.53125 29.03515625 C-44.47385414 31.80024808 -49.94004688 32.32775804 -56.2578125 30.5625 C-61.13290866 28.52000282 -65.23729205 25.6578452 -67.6328125 20.78125 C-69.37095802 14.6108334 -69.63826826 7.20787072 -66.4453125 1.5 C-65.7234375 0.530625 -65.0015625 -0.43875 -64.2578125 -1.4375 C-63.3915625 -2.6440625 -63.3915625 -2.6440625 -62.5078125 -3.875 C-62.0953125 -4.390625 -61.6828125 -4.90625 -61.2578125 -5.4375 C-70.38603292 -5.4375 -78.74277687 4.44928069 -84.8515625 10.33203125 Z " fill="#FEE077" transform="translate(305.2578125,48.4375)"/>
<path d="M0 0 C2.8657754 2.67798955 5.79725752 5.2609627 8.76171875 7.828125 C11.05351905 9.83514538 13.30215502 11.88652851 15.5546875 13.9375 C18.95302302 17.00996773 22.41809273 19.94692622 25.9921875 22.8125 C31.75165176 27.46908812 37.12167449 32.49084177 42.51953125 37.5546875 C45.56355763 40.40796778 48.67185627 43.17438009 51.83203125 45.8984375 C54.10423261 47.87790126 56.32678622 49.9083317 58.5546875 51.9375 C61.93159732 54.99108867 65.37435882 57.90679205 68.9296875 60.75 C74.25958128 65.05462426 79.20935088 69.69446658 84.18310547 74.39794922 C88.64320931 78.59415506 93.21412575 82.56414178 98.06106567 86.31414795 C100.7421875 88.5625 100.7421875 88.5625 102.78121948 90.90777588 C107.05699432 95.66380547 110.62653304 98.0390647 116.95511055 98.52482224 C121.10070053 98.65307331 125.22954733 98.58205576 129.375 98.484375 C131.17999068 98.47731855 132.98500533 98.47497933 134.79000854 98.47711182 C139.51905728 98.47342697 144.24609352 98.42056501 148.97460938 98.3526001 C156.54746474 98.24761685 164.12009979 98.19847347 171.69363022 98.18637848 C174.32664243 98.17213657 176.95758516 98.12485952 179.59011841 98.07440186 C194.31412255 97.91584506 194.31412255 97.91584506 200.7421875 103.5625 C221.40310052 125.85453773 206.7421875 169.09810186 206.7421875 191.5625 C37.7821875 191.5625 -131.1778125 191.5625 -305.2578125 191.5625 C-305.2578125 112.5625 -305.2578125 112.5625 -300.2578125 104.5625 C-294.80792282 99.51138273 -290.79856164 98.2669028 -283.45092773 98.40234375 C-282.66822006 98.40836105 -281.88551239 98.41437836 -281.0790863 98.420578 C-279.38103869 98.43375896 -277.68301815 98.45088526 -275.98504448 98.47149658 C-272.36263967 98.51018707 -268.74051055 98.51223913 -265.1179285 98.51629639 C-258.37882801 98.52401867 -251.64066865 98.5453292 -244.90209961 98.63427734 C-240.20903248 98.69480682 -235.51801704 98.70598865 -230.82463264 98.68557739 C-229.04453209 98.68684697 -227.26434446 98.70592931 -225.48464775 98.74386597 C-216.43689762 98.9288361 -209.83809815 99.05046391 -202.90649414 92.7578125 C-201.34326542 91.03836955 -199.7930271 89.30700114 -198.2578125 87.5625 C-196.53580872 86.11193203 -194.78872554 84.69010415 -193.0078125 83.3125 C-187.69210092 79.02955524 -182.76304903 74.40518961 -177.80786133 69.71801758 C-173.3904468 65.56107838 -168.81914768 61.69589824 -164.078125 57.91015625 C-159.36863102 53.9899265 -154.94810741 49.76130954 -150.48046875 45.5703125 C-147.43644237 42.71703222 -144.32814373 39.95061991 -141.16796875 37.2265625 C-138.89576739 35.24709874 -136.67321378 33.2166683 -134.4453125 31.1875 C-131.04697698 28.11503227 -127.58190727 25.17807378 -124.0078125 22.3125 C-118.24483952 17.65307504 -112.87201097 12.62717348 -107.46875 7.5625 C-103.81006666 4.13393581 -100.06703547 0.82251892 -96.2578125 -2.4375 C-95.2510749 -3.32135589 -94.24458674 -4.20549592 -93.23828125 -5.08984375 C-61.60031648 -32.6837528 -29.41028314 -27.57759487 0 0 Z M-84.8515625 10.33203125 C-87.7024617 13.07236266 -90.66144387 15.59906554 -93.7578125 18.0625 C-99.44916893 22.61894784 -104.72193532 27.57042221 -110.03515625 32.5546875 C-113.07918263 35.40796778 -116.18748127 38.17438009 -119.34765625 40.8984375 C-121.61985761 42.87790126 -123.84241122 44.9083317 -126.0703125 46.9375 C-129.44722232 49.99108867 -132.88998382 52.90679205 -136.4453125 55.75 C-141.77840644 60.05720882 -146.73136971 64.69977162 -151.70751953 69.40673828 C-156.11756241 73.55677355 -160.68017453 77.41675735 -165.4140625 81.1953125 C-171.96335761 86.6470609 -178.2330459 92.5377334 -184.2578125 98.5625 C-95.1578125 98.5625 -6.0578125 98.5625 85.7421875 98.5625 C82.19792649 95.01823899 78.62917854 91.56189871 74.9296875 88.1875 C74.39907715 87.70273193 73.8684668 87.21796387 73.32177734 86.71850586 C68.14805522 82.00304566 62.89402176 77.39177521 57.5625 72.85546875 C50.72591768 67.03220634 44.00788424 61.11620857 37.4140625 55.01953125 C34.55896424 52.3940096 31.65453506 49.8358216 28.72265625 47.296875 C26.43085595 45.28985462 24.18221998 43.23847149 21.9296875 41.1875 C18.53135198 38.11503227 15.06628227 35.17807378 11.4921875 32.3125 C5.73209305 27.65540236 0.36182274 22.63210532 -5.0390625 17.5703125 C-8.70042983 14.13936609 -12.42844227 10.80505122 -16.2578125 7.5625 C-17.13050781 6.81097656 -18.00320313 6.05945312 -18.90234375 5.28515625 C-24.10380467 0.89486707 -28.91094385 -2.89875254 -35.2578125 -5.4375 C-35.9178125 -5.1075 -36.5778125 -4.7775 -37.2578125 -4.4375 C-36.83628906 -3.96699219 -36.41476562 -3.49648438 -35.98046875 -3.01171875 C-35.43261719 -2.38910156 -34.88476562 -1.76648438 -34.3203125 -1.125 C-33.77503906 -0.51011719 -33.22976563 0.10476562 -32.66796875 0.73828125 C-28.84476876 5.6840829 -29.56800759 12.66842442 -30.2578125 18.5625 C-31.95705887 23.23039023 -34.35854348 26.33221749 -38.53125 29.03515625 C-44.47385414 31.80024808 -49.94004688 32.32775804 -56.2578125 30.5625 C-61.13290866 28.52000282 -65.23729205 25.6578452 -67.6328125 20.78125 C-69.37095802 14.6108334 -69.63826826 7.20787072 -66.4453125 1.5 C-65.7234375 0.530625 -65.0015625 -0.43875 -64.2578125 -1.4375 C-63.3915625 -2.6440625 -63.3915625 -2.6440625 -62.5078125 -3.875 C-62.0953125 -4.390625 -61.6828125 -4.90625 -61.2578125 -5.4375 C-70.38603292 -5.4375 -78.74277687 4.44928069 -84.8515625 10.33203125 Z " fill="#EDF4F5" transform="translate(305.2578125,48.4375)"/>
<path d="M0 0 C13.2 0 26.4 0 40 0 C40.11307427 29.41920823 40.20257089 58.83838306 40.25532665 88.25776407 C40.26158005 91.73238995 40.26805167 95.2070154 40.2746582 98.68164062 C40.27596976 99.37336477 40.27728131 100.06508891 40.2786326 100.77777439 C40.30037863 111.97246198 40.33979565 123.16702095 40.38576398 134.36163229 C40.43255115 145.85163602 40.45992597 157.34154933 40.47044247 168.83164644 C40.47696213 175.28412776 40.49229031 181.73631754 40.52865028 188.18870544 C40.56259983 194.26258007 40.57305479 200.33604317 40.56553841 206.41000366 C40.56691339 208.6384454 40.57685166 210.86690096 40.59602737 213.09526062 C40.6209485 216.14079322 40.61490786 219.18477737 40.60127258 222.23034668 C40.61583679 223.10974395 40.630401 223.98914123 40.64540654 224.8951869 C40.57043965 231.1008051 38.90204914 235.16698031 35 240 C27.64421227 246.81755936 20.28069343 247.15646567 10.6640625 247.09765625 C9.78471039 247.0962413 8.90535828 247.09482635 7.99935913 247.09336853 C5.20787058 247.08779877 2.41646406 247.0752519 -0.375 247.0625 C-2.27473842 247.05748109 -4.1744781 247.05291887 -6.07421875 247.04882812 C-10.71617714 247.03783925 -15.35807469 247.02059557 -20 247 C-17 245 -17 245 -13.1875 243.8125 C-7.74234323 241.83700114 -4.54656192 238.02592888 -1.94921875 232.9440918 C-0.65559437 228.93179334 -0.64447507 225.17279471 -0.5859375 220.98046875 C-0.56657135 220.12189774 -0.5472052 219.26332672 -0.5272522 218.3787384 C-0.46768444 215.64842526 -0.42116266 212.91806943 -0.375 210.1875 C-0.33679921 208.33136227 -0.29774625 206.47524188 -0.2578125 204.61914062 C-0.16200173 200.07956856 -0.07788679 195.53991354 0 191 C0.82999512 190.60240479 1.65999023 190.20480957 2.51513672 189.79516602 C3.60068848 189.26592529 4.68624023 188.73668457 5.8046875 188.19140625 C6.88218262 187.67006104 7.95967773 187.14871582 9.06982422 186.61157227 C13.70312883 184.06329333 15.76273902 181.23885321 18.3125 176.625 C19.72367603 171.23687333 19.59856771 167.44653864 17.5 162.375 C11.6442047 153.50075351 1.51141183 150.49247153 -8 147 C-8 143 -8 143 -7 142 C-2.60770695 141.55180683 0.21591052 141.9233461 4 144.0625 C7.13822592 145.78425041 8.07330785 145.99881762 11.875 145.9375 C15.27395488 145.27976604 15.27395488 145.27976604 17 142 C17.43966775 138.55593596 17.5283379 136.74847869 15.5 133.875 C10.59201111 130.19400833 6.02616201 128.2052324 0 127 C0 85.09 0 43.18 0 0 Z " fill="#FED05B" transform="translate(472,241)"/>
<path d="M0 0 C2.8657754 2.67798955 5.79725752 5.2609627 8.76171875 7.828125 C11.05351905 9.83514538 13.30215502 11.88652851 15.5546875 13.9375 C18.95302302 17.00996773 22.41809273 19.94692622 25.9921875 22.8125 C31.75165176 27.46908812 37.12167449 32.49084177 42.51953125 37.5546875 C45.56355763 40.40796778 48.67185627 43.17438009 51.83203125 45.8984375 C54.10423261 47.87790126 56.32678622 49.9083317 58.5546875 51.9375 C61.93159732 54.99108867 65.37435882 57.90679205 68.9296875 60.75 C74.25958128 65.05462426 79.20935088 69.69446658 84.18310547 74.39794922 C88.68276735 78.6313725 93.33130789 82.59562863 98.15625 86.45703125 C102.49299241 89.9880043 106.73072475 93.66415876 110.7421875 97.5625 C110.7421875 97.8925 110.7421875 98.2225 110.7421875 98.5625 C85.98582875 100.23002676 85.98582875 100.23002676 79.6171875 94.9375 C77.95166224 93.18344183 76.33046165 91.38680251 74.7421875 89.5625 C72.28707669 87.18046633 69.75964801 84.8782898 67.2421875 82.5625 C65.95151095 81.34538282 64.66114064 80.1279408 63.37109375 78.91015625 C59.58691572 75.37832247 55.6063602 72.1392088 51.5625 68.91015625 C46.85300602 64.9899265 42.43248241 60.76130954 37.96484375 56.5703125 C34.92081737 53.71703222 31.81251873 50.95061991 28.65234375 48.2265625 C26.38014239 46.24709874 24.15758878 44.2166683 21.9296875 42.1875 C18.53135198 39.11503227 15.06628227 36.17807378 11.4921875 33.3125 C5.73209305 28.65540236 0.36182274 23.63210532 -5.0390625 18.5703125 C-8.70059385 15.1392124 -12.43150408 11.80883648 -16.2578125 8.5625 C-17.11890625 7.81097656 -17.98 7.05945313 -18.8671875 6.28515625 C-24.35576104 1.6077393 -29.43099989 -2.02704518 -36.2578125 -4.4375 C-35.83628906 -3.96699219 -35.41476562 -3.49648438 -34.98046875 -3.01171875 C-34.43261719 -2.38910156 -33.88476562 -1.76648438 -33.3203125 -1.125 C-32.77503906 -0.51011719 -32.22976563 0.10476562 -31.66796875 0.73828125 C-27.8522386 5.6744197 -28.54879633 12.67902927 -29.2578125 18.5625 C-31.42911113 23.95197338 -34.97770704 28.38666971 -40.28515625 30.90625 C-47.40731486 33.27560178 -53.21993561 32.97371887 -60.05859375 29.87109375 C-64.50525173 27.22521378 -67.31399608 23.33752728 -69.2578125 18.5625 C-70.12651963 10.83504706 -69.92415937 4.87579282 -65.2578125 -1.4375 C-64.2678125 -2.9225 -64.2678125 -2.9225 -63.2578125 -4.4375 C-71.92365777 -0.56439772 -78.11303076 4.84460778 -84.8515625 11.33203125 C-87.7024617 14.07236266 -90.66144387 16.59906554 -93.7578125 19.0625 C-99.44916893 23.61894784 -104.72193532 28.57042221 -110.03515625 33.5546875 C-113.07918263 36.40796778 -116.18748127 39.17438009 -119.34765625 41.8984375 C-121.61985761 43.87790126 -123.84241122 45.9083317 -126.0703125 47.9375 C-129.44722232 50.99108867 -132.88998382 53.90679205 -136.4453125 56.75 C-141.77840644 61.05720882 -146.73136971 65.69977162 -151.70751953 70.40673828 C-156.1170385 74.55628053 -160.67714137 78.41756397 -165.4140625 82.19140625 C-169.65558946 85.72795414 -173.65764261 89.51207247 -177.66430664 93.31079102 C-182.11876312 97.51774261 -183.85165003 98.69081395 -189.921875 98.66015625 C-191.60410156 98.65532227 -191.60410156 98.65532227 -193.3203125 98.65039062 C-194.4959375 98.64201172 -195.6715625 98.63363281 -196.8828125 98.625 C-198.06617188 98.62048828 -199.24953125 98.61597656 -200.46875 98.61132812 C-203.39848757 98.59951467 -206.32812522 98.58304258 -209.2578125 98.5625 C-205.41279968 94.66679963 -201.46068913 90.90689223 -197.4453125 87.1875 C-196.82366211 86.6109668 -196.20201172 86.03443359 -195.56152344 85.44042969 C-191.81447973 81.97514801 -188.03403496 78.55909516 -184.16796875 75.2265625 C-181.89576739 73.24709874 -179.67321378 71.2166683 -177.4453125 69.1875 C-174.04697698 66.11503227 -170.58190727 63.17807378 -167.0078125 60.3125 C-161.24834824 55.65591188 -155.87832551 50.63415823 -150.48046875 45.5703125 C-147.43644237 42.71703222 -144.32814373 39.95061991 -141.16796875 37.2265625 C-138.89576739 35.24709874 -136.67321378 33.2166683 -134.4453125 31.1875 C-131.04697698 28.11503227 -127.58190727 25.17807378 -124.0078125 22.3125 C-118.24483952 17.65307504 -112.87201097 12.62717348 -107.46875 7.5625 C-103.81006666 4.13393581 -100.06703547 0.82251892 -96.2578125 -2.4375 C-95.2510749 -3.32135589 -94.24458674 -4.20549592 -93.23828125 -5.08984375 C-61.60031648 -32.6837528 -29.41028314 -27.57759487 0 0 Z " fill="#7BA1B1" transform="translate(305.2578125,48.4375)"/>
<path d="M0 0 C5.97730032 -0.12414511 11.95384052 -0.21459663 17.93212891 -0.2746582 C19.96318647 -0.29971104 21.9941547 -0.3337632 24.02490234 -0.37719727 C26.95432648 -0.43825687 29.88255279 -0.46630227 32.8125 -0.48828125 C34.16142334 -0.52699089 34.16142334 -0.52699089 35.53759766 -0.56648254 C41.91937406 -0.56928406 46.04438408 0.95065044 51 5 C56.00399905 10.39905161 57.29933524 14.42461004 57.22705078 21.70605469 C57.22734283 22.47717087 57.22763489 23.24828705 57.22793579 24.04277039 C57.22654493 26.5859206 57.21099527 29.1287761 57.1953125 31.671875 C57.1915815 33.43735596 57.18873494 35.20283899 57.18673706 36.96832275 C57.17910743 41.61095922 57.15946467 46.25347019 57.1373291 50.89605713 C57.1132556 56.46859646 57.1040865 62.0411778 57.09242249 67.61375427 C57.0730399 76.07592341 57.03471269 84.5378173 57 93 C43.8 93 30.6 93 17 93 C17 84.09 17 75.18 17 66 C21.95 65.505 21.95 65.505 27 65 C28.96741628 63.03258372 28.16388207 59.22432269 28.16796875 56.53515625 C28.17129715 55.78664902 28.17462555 55.03814178 28.17805481 54.26695251 C28.18312693 52.68066016 28.18546305 51.0943571 28.18530273 49.50805664 C28.18748773 47.07615631 28.20563581 44.64471051 28.22460938 42.21289062 C28.22754349 40.67448072 28.22952817 39.13606866 28.23046875 37.59765625 C28.23765427 36.86740738 28.24483978 36.13715851 28.25224304 35.38478088 C28.36709434 31.23730007 28.36709434 31.23730007 26 28 C23.79749008 27.53993654 23.79749008 27.53993654 21.375 27.375 C20.55773437 27.30023438 19.74046875 27.22546875 18.8984375 27.1484375 C18.27195312 27.09945312 17.64546875 27.05046875 17 27 C16.92523438 26.0821875 16.85046875 25.164375 16.7734375 24.21875 C15.92819844 16.3298521 14.92691498 10.54642167 9 5 C6.50447863 3.10057876 6.50447863 3.10057876 4 2 C2.66569768 1.33527484 1.33220721 0.66891417 0 0 Z " fill="#DEEBF0" transform="translate(455,147)"/>
<path d="M0 0 C6.61155691 4.49535783 11.40159678 11.07849872 13.8125 18.71484375 C14.76696226 28.63120433 14.78364943 37.32680051 8.8125 45.71484375 C8.36648437 46.36839844 7.92046875 47.02195312 7.4609375 47.6953125 C2.71772645 53.90918396 -4.60118384 58.01179318 -12.1875 59.71484375 C-20.9805468 60.57419911 -29.15680126 59.14161434 -36.4375 53.96484375 C-44.60565495 47.22940953 -49.11950312 40.20002875 -50.640625 29.5390625 C-51.1357955 20.14207687 -48.28643155 12.89933708 -42.4765625 5.55078125 C-30.66228908 -7.01190769 -14.61486038 -8.58623047 0 0 Z " fill="#CB98E4" transform="translate(201.1875,286.28515625)"/>
<path d="M0 0 C1.0725 0.721875 2.145 1.44375 3.25 2.1875 C10.64439475 9.74994918 13.30424379 17.38701321 13.31469727 27.73828125 C13.14202105 36.82779378 10.24582708 43.59253539 4 50.2421875 C-3.95474339 57.23366118 -11.85833467 58.48368586 -22.16796875 58.2734375 C-30.09316622 57.70792902 -36.45410808 54.65701783 -42.171875 49.1484375 C-49.17576214 40.91737355 -51.12315962 32.53945386 -50.52734375 22.0078125 C-49.75416561 14.39745397 -45.95581085 8.6433738 -41 3 C-38.37890625 1.015625 -38.37890625 1.015625 -35.5625 -0.75 C-34.63566406 -1.34296875 -33.70882812 -1.9359375 -32.75390625 -2.546875 C-22.64836835 -7.87915883 -9.18017112 -6.22384483 0 0 Z " fill="#CB97E5" transform="translate(180,376)"/>
<path d="M0 0 C4.16251743 1.36227843 5.08350131 2.47994223 7.4375 6.125 C8.18522541 8.87316988 8.75267551 11.39694988 9.1875 14.1875 C9.31253906 14.89455078 9.43757813 15.60160156 9.56640625 16.33007812 C10.13543125 19.65981235 10.4375 22.73711605 10.4375 26.125 C11.0975 26.125 11.7575 26.125 12.4375 26.125 C12.55609375 25.30257813 12.6746875 24.48015625 12.796875 23.6328125 C13.52235148 19.66038641 14.53289994 15.86540021 15.6875 12 C15.97560547 10.94619141 15.97560547 10.94619141 16.26953125 9.87109375 C17.67936896 5.18050161 19.20340128 2.64081976 23.4375 0.125 C27 0 27 0 30.4375 1.125 C34.51119752 6.02925721 35.99097961 11.4323429 37.6875 17.5 C37.955625 18.42683594 38.22375 19.35367187 38.5 20.30859375 C39.15515495 22.57823768 39.80067219 24.85015917 40.4375 27.125 C40.56801758 26.44920898 40.69853516 25.77341797 40.83300781 25.07714844 C41.43534022 22.00641351 42.06112967 18.94091791 42.6875 15.875 C42.89246094 14.81152344 43.09742188 13.74804688 43.30859375 12.65234375 C43.52128906 11.62753906 43.73398438 10.60273438 43.953125 9.546875 C44.14165039 8.60424805 44.33017578 7.66162109 44.52441406 6.69042969 C45.62100868 3.60940931 46.87004667 2.1310809 49.4375 0.125 C53.24936858 0.125 55.63527967 0.66372331 58.9375 2.5625 C62.43372451 8.53521687 58.96721546 18.30718637 57.6953125 24.859375 C57.52627411 25.74103333 57.35723572 26.62269165 57.18307495 27.53106689 C56.82738952 29.37680249 56.46930139 31.22207658 56.10888672 33.06689453 C55.56151688 35.88005266 55.02853593 38.69570209 54.49609375 41.51171875 C54.14670679 43.31527359 53.79647565 45.11866515 53.4453125 46.921875 C53.28894318 47.75636169 53.13257385 48.59084839 52.97146606 49.45062256 C51.86588122 55.01073172 50.56588851 59.99661149 46.4375 64.125 C44.44921875 64.53125 44.44921875 64.53125 42.125 64.625 C40.98611328 64.70234375 40.98611328 64.70234375 39.82421875 64.78125 C36.08104935 63.75203157 34.30553657 61.35818583 32.4375 58.125 C31.07652866 54.58640387 30.11747517 50.98490194 29.1875 47.3125 C28.68477261 45.40949911 28.179694 43.50711726 27.671875 41.60546875 C27.45756836 40.76910889 27.24326172 39.93274902 27.02246094 39.07104492 C26.60912999 37.13875548 26.60912999 37.13875548 25.4375 36.125 C25.24639648 36.7955542 25.05529297 37.4661084 24.85839844 38.15698242 C23.98019926 41.21244979 23.08405841 44.26237169 22.1875 47.3125 C21.88714844 48.36759766 21.58679688 49.42269531 21.27734375 50.50976562 C18.22628781 60.7989649 18.22628781 60.7989649 14.4375 64.125 C12.21875 64.75390625 12.21875 64.75390625 9.9375 64.6875 C9.1846875 64.68878906 8.431875 64.69007813 7.65625 64.69140625 C4.37522206 63.85381989 3.41990238 62.91857329 1.4375 60.125 C0.31036553 56.60025022 -0.33762886 53.01184683 -1 49.375 C-1.41856406 47.21470669 -1.83785694 45.05455449 -2.2578125 42.89453125 C-2.46954102 41.78158691 -2.68126953 40.66864258 -2.89941406 39.52197266 C-3.55673474 36.15453528 -4.2640309 32.80199951 -4.9921875 29.44921875 C-5.22365479 28.37833008 -5.45512207 27.30744141 -5.69360352 26.20410156 C-6.13816495 24.15443602 -6.58640008 22.10556284 -7.03881836 20.05761719 C-8.11915524 14.98730576 -9.02110691 10.31130463 -8.5625 5.125 C-5.91434712 1.27314127 -4.72054682 0.16563322 0 0 Z " fill="#CB98E5" transform="translate(83.5625,279.875)"/>
<path d="M0 0 C4.10372489 1.3306863 5.15778471 2.46618534 7.5703125 5.9921875 C8.68599609 7.58933594 8.68599609 7.58933594 9.82421875 9.21875 C10.23172363 9.82493164 10.63922852 10.43111328 11.05908203 11.05566406 C12.65644155 13.43116666 14.28250413 15.78578063 15.91015625 18.140625 C19.11176154 22.78386345 22.28619759 27.44495712 25.4453125 32.1171875 C25.44942139 31.32546143 25.45353027 30.53373535 25.45776367 29.71801758 C25.49071404 26.12115498 25.56136293 22.52598275 25.6328125 18.9296875 C25.63861328 17.68380859 25.64441406 16.43792969 25.65039062 15.15429688 C25.89911669 4.84598331 25.89911669 4.84598331 28.7734375 1.76171875 C31.4453125 0.1171875 31.4453125 0.1171875 35.0078125 -0.0078125 C39.29176597 1.39420864 40.21093062 2.20041927 42.4453125 6.1171875 C43.04478359 10.15751238 43.00553729 14.16380629 42.9765625 18.2421875 C42.9803894 19.42184082 42.98421631 20.60149414 42.98815918 21.81689453 C42.99087831 24.30827692 42.9835172 26.79968786 42.96679688 29.29101562 C42.94538929 33.10351232 42.96660067 36.91412439 42.9921875 40.7265625 C42.98954423 43.14844166 42.98441926 45.57031964 42.9765625 47.9921875 C42.98465942 49.13187988 42.99275635 50.27157227 43.00109863 51.44580078 C42.90756654 59.34313672 42.90756654 59.34313672 40.53710938 63.3125 C38.14787775 65.37379787 36.84606624 66.03330881 33.7578125 66.6796875 C27.97421875 65.69756781 25.0583279 60.30986257 21.71020508 55.75854492 C20.00873877 53.33452801 18.34523556 50.8890434 16.6953125 48.4296875 C16.13199219 47.60146484 15.56867188 46.77324219 14.98828125 45.91992188 C12.36234362 42.04309434 9.83234448 38.1469604 7.4453125 34.1171875 C7.4359668 34.94444336 7.42662109 35.77169922 7.41699219 36.62402344 C7.36330931 40.37235165 7.2796554 44.11942912 7.1953125 47.8671875 C7.17404297 49.82011719 7.17404297 49.82011719 7.15234375 51.8125 C7.12011719 53.06289063 7.08789062 54.31328125 7.0546875 55.6015625 C7.03374023 56.75366211 7.01279297 57.90576172 6.99121094 59.09277344 C6.33515053 62.72751238 5.38028486 63.93140199 2.4453125 66.1171875 C-1.0546875 66.6171875 -1.0546875 66.6171875 -4.5546875 66.1171875 C-7.23776916 64.05362582 -8.40824883 62.86019151 -9.0693512 59.50587463 C-9.07554977 58.51723923 -9.08174835 57.52860382 -9.08813477 56.51000977 C-9.1039711 55.38526749 -9.11980743 54.26052521 -9.13612366 53.10169983 C-9.13116379 51.89122482 -9.12620392 50.68074982 -9.12109375 49.43359375 C-9.12729233 48.18593735 -9.13349091 46.93828094 -9.13987732 45.65281677 C-9.14698305 43.01366263 -9.14573273 40.37603118 -9.13110352 37.73706055 C-9.11392533 34.36281785 -9.13739793 30.99027961 -9.17259312 27.61622715 C-9.19989459 24.3886627 -9.18982862 21.16124108 -9.18359375 17.93359375 C-9.20348106 16.12091759 -9.20348106 16.12091759 -9.22377014 14.2716217 C-9.12017081 4.94838911 -9.12017081 4.94838911 -6.23754883 1.82348633 C-3.5546875 0.1171875 -3.5546875 0.1171875 0 0 Z " fill="#CB98E5" transform="translate(394.5546875,278.8828125)"/>
<path d="M0 0 C3.00305579 1.73614163 4.01936285 2.71654428 6 5.6875 C6.4375 8.5625 6.4375 8.5625 6 11.6875 C3.53511495 15.02234448 2.13239709 16.49876715 -2 17.1875 C-5 16.6875 -5 16.6875 -7.25 15.1875 C-11.44247517 12.90069536 -15.32895898 13.05253036 -20 13.6875 C-24.48788081 15.03896411 -27.13886088 17.35142619 -29.5 21.375 C-31.49203418 25.95753356 -31.2701062 29.91774868 -30 34.6875 C-27.91260292 39.38414343 -24.59048262 42.39225869 -20 44.6875 C-14.42465063 45.05918996 -10.78252991 44.91292715 -6 41.6875 C-4.11868431 39.13961147 -4.11868431 39.13961147 -3 36.6875 C-3.60328125 36.73390625 -4.2065625 36.7803125 -4.828125 36.828125 C-11.29072561 37.11998438 -11.29072561 37.11998438 -14.5625 35.125 C-16.56331202 31.73231874 -16.55326548 29.56035839 -16 25.6875 C-14.62109375 23.50390625 -14.62109375 23.50390625 -12 21.6875 C-8.51356273 21.06302908 -5.09629257 21.08404944 -1.5625 21.125 C-0.62083984 21.10115234 0.32082031 21.07730469 1.29101562 21.05273438 C5.86184636 21.0624115 8.30351607 21.21282074 12.15234375 23.8359375 C15.46859493 28.95404186 14.22029042 33.9461336 13 39.6875 C9.99260372 47.91067581 5.65345824 54.24849422 -2 58.6875 C-10.19535833 61.92403079 -20.56848029 62.21799481 -28.84375 58.9140625 C-37.7627621 53.84056648 -43.57635086 46.51652454 -46.59375 36.76953125 C-48.60029565 26.48598477 -46.74091665 18.35615685 -41 9.6875 C-31.56379954 -2.82522323 -14.20061378 -6.79070048 0 0 Z " fill="#CB98E5" transform="translate(254,370.3125)"/>
<path d="M0 0 C0.89525391 -0.00193359 1.79050781 -0.00386719 2.71289062 -0.00585938 C3.63650391 0.01798828 4.56011719 0.04183594 5.51171875 0.06640625 C6.42373047 0.05544922 7.33574219 0.04449219 8.27539062 0.03320312 C15.60504697 0.11201663 20.93578008 1.76290179 26.4765625 6.62890625 C27.29833984 7.61890625 27.29833984 7.61890625 28.13671875 8.62890625 C28.70261719 9.28890625 29.26851563 9.94890625 29.8515625 10.62890625 C32.87037888 15.10900477 32.68546815 20.40393539 32.19921875 25.62890625 C30.13839439 32.13677266 26.82597894 35.87773279 21.19921875 39.62890625 C22.74143242 43.3149664 25.0288062 45.62380788 27.82421875 48.44140625 C32.08934301 53.1048835 32.08934301 53.1048835 33.01171875 57.50390625 C32.05416193 61.18681711 31.41155015 62.56971945 28.19921875 64.62890625 C24.76171875 65.19140625 24.76171875 65.19140625 21.19921875 64.62890625 C19.13697719 63.00082081 17.84736885 61.6286617 16.19921875 59.62890625 C14.5985555 57.85490553 12.99412358 56.08430079 11.38671875 54.31640625 C9.9895338 52.75511475 8.59324943 51.19301475 7.19921875 49.62890625 C7.1734375 50.29277344 7.14765625 50.95664062 7.12109375 51.640625 C6.84999732 55.86110351 6.57556767 58.94590266 4.51171875 62.69140625 C1.60626914 65.12570187 -0.00824919 65.70630486 -3.80078125 65.62890625 C-6.54794512 63.85851176 -8.33224047 62.56598781 -9.80078125 59.62890625 C-9.91662665 57.93005857 -9.97035272 56.22680338 -9.99365234 54.52416992 C-10.00971527 53.45933884 -10.0257782 52.39450775 -10.04232788 51.29740906 C-10.08671318 46.42541079 -10.12783978 41.55354956 -10.15087891 36.68139648 C-10.16744646 34.11001541 -10.19474654 31.53868053 -10.23291016 28.9675293 C-10.28760678 25.26456758 -10.30954284 21.562686 -10.32421875 17.859375 C-10.34688812 16.71027145 -10.3695575 15.56116791 -10.39291382 14.37724304 C-10.37189349 6.45388085 -10.37189349 6.45388085 -7.56811523 2.40380859 C-4.71087865 0.57124486 -3.34611076 -0.00302268 0 0 Z " fill="#CC98E4" transform="translate(236.80078125,279.37109375)"/>
<path d="M0 0 C0.75047607 0.00008057 1.50095215 0.00016113 2.27416992 0.00024414 C3.0551001 0.03110107 3.83603027 0.06195801 4.640625 0.09375 C5.44540283 0.1136499 6.25018066 0.1335498 7.0793457 0.15405273 C16.19855583 0.50248105 22.08433321 2.0183069 28.48046875 8.77734375 C32.93086759 14.50985195 32.70598253 20.56654486 31.890625 27.59375 C29.75450217 33.35119693 25.72058642 36.9993601 20.890625 40.59375 C21.95603516 41.75003906 21.95603516 41.75003906 23.04296875 42.9296875 C23.9714721 43.94260024 24.89985106 44.95562701 25.828125 45.96875 C26.53098633 46.73058594 26.53098633 46.73058594 27.24804688 47.5078125 C31.12766616 51.75027388 32.22182627 53.80275829 32.09375 59.68359375 C31.890625 61.59375 31.890625 61.59375 30.890625 63.59375 C27.47805553 65.30003474 24.50716626 65.60301733 20.890625 64.59375 C17.78535978 62.29527331 15.37698134 59.53542674 12.890625 56.59375 C12.28476562 55.90410156 11.67890625 55.21445312 11.0546875 54.50390625 C9.64503341 52.88578219 8.26448072 51.24237687 6.890625 49.59375 C6.86484375 50.34140625 6.8390625 51.0890625 6.8125 51.859375 C6.35356735 59.82811457 6.35356735 59.82811457 4.265625 63.28125 C0.8996833 65.14137568 -1.32575635 65.13426695 -5.109375 64.59375 C-7.74331999 62.55414973 -8.95446519 61.3568814 -9.6240387 58.05836487 C-9.63023727 57.10525925 -9.63643585 56.15215363 -9.64282227 55.17016602 C-9.6586586 54.08546524 -9.67449493 53.00076447 -9.69081116 51.88319397 C-9.68585129 50.71646652 -9.68089142 49.54973907 -9.67578125 48.34765625 C-9.68197983 47.14439194 -9.68817841 45.94112762 -9.69456482 44.70140076 C-9.70166819 42.15698048 -9.69848008 39.61251378 -9.68579102 37.06811523 C-9.67193849 33.17409693 -9.70597804 29.28248669 -9.74414062 25.38867188 C-9.74509192 22.91666608 -9.74323247 20.44465727 -9.73828125 17.97265625 C-9.75153946 16.80795303 -9.76479767 15.64324982 -9.77845764 14.44325256 C-9.68592183 6.41130069 -9.68592183 6.41130069 -6.8269043 2.35717773 C-4.21681433 0.66346829 -3.04566931 -0.03219833 0 0 Z " fill="#CB97E5" transform="translate(291.109375,366.40625)"/>
<path d="M0 0 C0.79567383 -0.00515625 1.59134766 -0.0103125 2.41113281 -0.015625 C3.23967773 0.01144531 4.06822266 0.03851563 4.921875 0.06640625 C5.77362305 0.08445312 6.62537109 0.1025 7.50292969 0.12109375 C14.86106865 0.4035559 20.2936191 1.3666973 25.71875 6.60546875 C31.1603732 12.59125426 32.08737214 16.16760481 32.015625 24.29296875 C31.35594235 30.694889 28.1237977 34.55481558 23.359375 38.62890625 C22.4725 39.28890625 21.585625 39.94890625 20.671875 40.62890625 C21.29835938 41.31597656 21.92484375 42.00304687 22.5703125 42.7109375 C23.38757813 43.61199219 24.20484375 44.51304687 25.046875 45.44140625 C25.85898438 46.33472656 26.67109375 47.22804688 27.5078125 48.1484375 C31.08175787 52.24492723 32.09442019 54.47813879 31.91015625 59.75390625 C31.671875 61.62890625 31.671875 61.62890625 30.671875 63.62890625 C27.25930553 65.33519099 24.28841626 65.63817358 20.671875 64.62890625 C17.56660978 62.33042956 15.15823134 59.57058299 12.671875 56.62890625 C12.06601563 55.93925781 11.46015625 55.24960937 10.8359375 54.5390625 C9.42628341 52.92093844 8.04573072 51.27753312 6.671875 49.62890625 C6.64609375 50.3765625 6.6203125 51.12421875 6.59375 51.89453125 C6.13481735 59.86327082 6.13481735 59.86327082 4.046875 63.31640625 C0.6809333 65.17653193 -1.54450635 65.1694232 -5.328125 64.62890625 C-7.96206999 62.58930598 -9.17321519 61.39203765 -9.8427887 58.09352112 C-9.84898727 57.1404155 -9.85518585 56.18730988 -9.86157227 55.20532227 C-9.8774086 54.12062149 -9.89324493 53.03592072 -9.90956116 51.91835022 C-9.90460129 50.75162277 -9.89964142 49.58489532 -9.89453125 48.3828125 C-9.90072983 47.17954819 -9.90692841 45.97628387 -9.91331482 44.73655701 C-9.92041819 42.19213673 -9.91723008 39.64767003 -9.90454102 37.10327148 C-9.89068849 33.20925318 -9.92472804 29.31764294 -9.96289062 25.42382812 C-9.96384192 22.95182233 -9.96198247 20.47981352 -9.95703125 18.0078125 C-9.97028946 16.84310928 -9.98354767 15.67840607 -9.99720764 14.47840881 C-9.904723 6.45089811 -9.904723 6.45089811 -7.05932617 2.39453125 C-4.37630048 0.66004999 -3.13576258 -0.00319107 0 0 Z " fill="#CB97E5" transform="translate(86.328125,366.37109375)"/>
<path d="M0 0 C17.82 0 35.64 0 54 0 C52.08569539 8.29531998 50.14824029 16.08943417 47.375 24.0625 C46.75655239 25.86545367 46.13931572 27.66882328 45.5234375 29.47265625 C45.25450684 30.24875244 44.98557617 31.02484863 44.70849609 31.82446289 C44.04711725 33.85531984 43.51801669 35.92793324 43 38 C25.18 38 7.36 38 -11 38 C-9.7572297 32.40753366 -8.53592249 27.19301022 -6.8359375 21.77734375 C-6.4754834 20.62226318 -6.1150293 19.46718262 -5.74365234 18.27709961 C-5.29199707 16.84503174 -4.8403418 15.41296387 -4.375 13.9375 C-2.93125 9.338125 -1.4875 4.73875 0 0 Z " fill="#FED15D" transform="translate(131,175)"/>
<path d="M0 0 C17.82 0 35.64 0 54 0 C52.78484465 4.86062138 51.57333489 9.56563407 50.08984375 14.328125 C49.73986328 15.45734375 49.38988281 16.5865625 49.02929688 17.75 C48.66900391 18.905 48.30871094 20.06 47.9375 21.25 C47.21649864 23.56741321 46.49640699 25.88510969 45.77734375 28.203125 C45.46015381 29.22051758 45.14296387 30.23791016 44.81616211 31.28613281 C44.1484748 33.50629798 43.56229256 35.75082976 43 38 C25.18 38 7.36 38 -11 38 C-9.64669948 31.23349742 -8.1907545 24.94020203 -6.0625 18.4375 C-5.68448242 17.25897461 -5.68448242 17.25897461 -5.29882812 16.05664062 C-3.57205619 10.69084036 -1.78265222 5.34795665 0 0 Z " fill="#FED15D" transform="translate(338,175)"/>
<path d="M0 0 C1.40897804 0.00333092 1.40897804 0.00333092 2.84642029 0.00672913 C3.90744461 0.00680466 4.96846893 0.00688019 6.06164551 0.00695801 C7.79286903 0.01469994 7.79286903 0.01469994 9.55906677 0.02259827 C10.73404221 0.02401321 11.90901764 0.02542816 13.11959839 0.02688599 C16.88981116 0.0325046 20.65996556 0.04506026 24.43016052 0.05775452 C26.97898779 0.06276712 29.52781599 0.06733044 32.0766449 0.07142639 C38.34033685 0.08248007 44.60399452 0.0992363 50.86766052 0.12025452 C49.78170972 5.94283242 48.5481911 11.58263247 46.70359802 17.22181702 C46.34314392 18.33379456 45.98268982 19.44577209 45.61131287 20.59144592 C45.15965759 21.96220276 44.70800232 23.33295959 44.24266052 24.74525452 C42.07703552 31.36587952 42.07703552 31.36587952 39.86766052 38.12025452 C22.04766052 38.12025452 4.22766052 38.12025452 -14.13233948 38.12025452 C-3.29391308 0.18576213 -3.29391308 0.18576213 0 0 Z " fill="#FED15D" transform="translate(237.13233947753906,174.87974548339844)"/>
<path d="M0 0 C4.29330597 2.06104053 7.25399837 3.93434068 9.83203125 8.01953125 C10.52686781 12.10169603 10.16871636 13.54001004 7.76953125 16.95703125 C4.83203125 19.01953125 4.83203125 19.01953125 1.39453125 19.01953125 C-2.16796875 18.01953125 -2.16796875 18.01953125 -5.16796875 16.45703125 C-8.71529051 14.75727291 -11.28225628 14.7863885 -15.16796875 15.01953125 C-15.49796875 16.00953125 -15.82796875 16.99953125 -16.16796875 18.01953125 C-15.03359375 18.44363281 -13.89921875 18.86773437 -12.73046875 19.3046875 C-3.16400468 22.9872778 4.87638541 26.20967643 10.83203125 34.95703125 C12.63313891 40.47292344 12.59462076 44.89303597 10.26953125 50.14453125 C7.02817571 55.98356889 2.19461512 60.00501687 -4.16796875 62.01953125 C-13.36150601 63.01768672 -21.51884969 62.68871074 -29.16796875 57.01953125 C-32.72093698 53.94553459 -34.87819644 51.49737003 -35.79296875 46.83203125 C-35.00111602 43.26869398 -34.21049886 42.04788466 -31.16796875 40.01953125 C-27.48180651 39.29675434 -25.20106619 39.38687335 -21.9609375 41.37109375 C-20.43043811 42.47138462 -18.90179246 43.57425855 -17.375 44.6796875 C-13.47629032 47.04651479 -10.00735958 46.39684219 -5.73046875 45.51953125 C-4.95703125 45.27203125 -4.95703125 45.27203125 -4.16796875 45.01953125 C-4.49574995 42.57517102 -4.49574995 42.57517102 -6.16796875 40.01953125 C-9.87608026 37.91487451 -13.97718809 36.65549304 -17.984375 35.234375 C-23.88476312 32.98617113 -27.73821658 30.41519351 -31.16796875 25.01953125 C-33.10592034 19.20567649 -33.18852567 13.09844349 -30.48046875 7.58203125 C-22.25938408 -1.52781933 -11.65831789 -3.6081847 0 0 Z " fill="#C58DE2" transform="translate(480.16796875,368.98046875)"/>
<path d="M0 0 C2.98934952 1.73483989 5.0515641 3.37843975 7.06640625 6.19921875 C7.69140625 9.19921875 7.69140625 9.19921875 7.06640625 12.19921875 C5.00390625 15.13671875 5.00390625 15.13671875 2.06640625 17.19921875 C-1.91753305 17.19921875 -4.40776732 16.47308668 -7.93359375 14.63671875 C-11.48091551 12.93696041 -14.04788128 12.966076 -17.93359375 13.19921875 C-18.26359375 14.18921875 -18.59359375 15.17921875 -18.93359375 16.19921875 C-18.35915527 16.43519775 -17.7847168 16.67117676 -17.19287109 16.91430664 C-14.55617091 18.01058527 -11.93275531 19.1357746 -9.30859375 20.26171875 C-7.95314453 20.81762695 -7.95314453 20.81762695 -6.5703125 21.38476562 C0.04335767 24.25712603 4.78439885 27.63520395 8.06640625 34.19921875 C8.5677488 40.63954232 9.04589543 46.80765276 5.06640625 52.19921875 C-1.48993797 58.75556297 -6.48863798 60.62710957 -15.71411133 60.63964844 C-24.16235373 60.42889741 -30.77705171 56.95856453 -36.93359375 51.19921875 C-38.47946251 48.10748123 -38.22718896 45.60492323 -37.93359375 42.19921875 C-35.94788958 39.22066249 -34.72459482 38.38317249 -31.24609375 37.57421875 C-27.74706159 38.2344135 -26.38658356 39.14515386 -23.55859375 41.19921875 C-19.02222076 44.44824265 -16.44471514 44.95937342 -10.93359375 44.19921875 C-9.94359375 43.53921875 -8.95359375 42.87921875 -7.93359375 42.19921875 C-8.12384089 40.24417222 -8.12384089 40.24417222 -8.93359375 38.19921875 C-10.7164254 37.0273728 -10.7164254 37.0273728 -12.9765625 36.3046875 C-13.80349609 35.98822266 -14.63042969 35.67175781 -15.48242188 35.34570312 C-17.2205267 34.71401588 -18.96008381 34.08630823 -20.70117188 33.46289062 C-27.69201819 30.77576718 -31.6979843 27.26396321 -35.30859375 20.69921875 C-36.61123211 15.48866533 -36.53161911 11.72349998 -33.80859375 7.07421875 C-25.87485684 -4.53337928 -12.40407809 -5.82399054 0 0 Z " fill="#CB98E5" transform="translate(423.93359375,370.80078125)"/>
<path d="M0 0 C4.17862962 0.87054784 5.56887157 2.12131491 8 5.625 C8.40276286 8.67376188 8.29949079 11.57019396 8 14.625 C8.74443359 13.97144531 8.74443359 13.97144531 9.50390625 13.3046875 C10.92521534 12.05868218 12.35131086 10.81812301 13.78125 9.58203125 C15.16466196 8.36180344 16.52408895 7.11312498 17.84375 5.82421875 C20.89606967 2.91757798 22.41841214 1.72357421 26.6875 1 C30 1.625 30 1.625 32.4375 3.25 C34 5.625 34 5.625 34.6875 8.375 C32.69402482 17.79870087 20.91645327 25.38459104 14 31.625 C18.28564323 36.81709344 22.83286132 41.41453062 27.8125 45.9375 C29.15473396 47.16014155 30.49469793 48.38528127 31.83203125 49.61328125 C32.41702393 50.14477783 33.0020166 50.67627441 33.60473633 51.22387695 C35.6347994 53.26246522 35.99152716 54.57053177 36.4375 57.4375 C36 60.625 36 60.625 33.375 63.5625 C30 65.625 30 65.625 27.140625 65.58984375 C23.2014672 64.3796796 21.06897079 62.21793392 18.375 59.25 C15.42211641 56.10025751 12.57233319 53.09041305 9 50.625 C8.97421875 51.21667969 8.9484375 51.80835938 8.921875 52.41796875 C8.63755714 56.37903347 8.28417502 59.11979996 6.3125 62.625 C3.41553221 65.13048566 1.82958851 65.70315487 -2 65.625 C-4.74716387 63.85460551 -6.53145922 62.56208156 -8 59.625 C-8.1158454 57.92615232 -8.16957147 56.22289713 -8.19287109 54.52026367 C-8.20893402 53.45543259 -8.22499695 52.3906015 -8.24154663 51.29350281 C-8.28593193 46.42150454 -8.32705853 41.54964331 -8.35009766 36.67749023 C-8.36666521 34.10610916 -8.39396529 31.53477428 -8.43212891 28.96362305 C-8.48682553 25.26066133 -8.50876159 21.55877975 -8.5234375 17.85546875 C-8.54610687 16.7063652 -8.56877625 15.55726166 -8.59213257 14.37333679 C-8.57100698 6.41029807 -8.57100698 6.41029807 -5.65478516 2.3996582 C-3 0.625 -3 0.625 0 0 Z " fill="#CC98E4" transform="translate(288,279.375)"/>
<path d="M0 0 C0.79245117 -0.00515625 1.58490234 -0.0103125 2.40136719 -0.015625 C3.2215332 0.01144531 4.04169922 0.03851563 4.88671875 0.06640625 C5.73395508 0.08445312 6.58119141 0.1025 7.45410156 0.12109375 C14.7643231 0.40323275 20.15438048 1.38836047 25.5859375 6.53515625 C31.06178174 12.48860962 33.06688677 16.68074838 32.8828125 24.8125 C32.11878428 31.78546637 28.67178619 36.07679456 23.35546875 40.40234375 C19.02649582 43.38325932 16.14560549 43.86033398 10.82421875 43.75390625 C9.65375 43.73585938 8.48328125 43.7178125 7.27734375 43.69921875 C6.3853125 43.67601562 5.49328125 43.6528125 4.57421875 43.62890625 C4.620625 44.8096875 4.66703125 45.99046875 4.71484375 47.20703125 C4.75236824 48.76429759 4.78876768 50.32159133 4.82421875 51.87890625 C4.87449219 53.04486328 4.87449219 53.04486328 4.92578125 54.234375 C5.02433421 59.99972312 5.02433421 59.99972312 2.77734375 63.140625 C-0.47559775 65.3380908 -2.59704879 65.24423825 -6.42578125 64.62890625 C-9.13056383 62.42487478 -10.27887626 60.58517411 -10.81085205 57.12231445 C-10.99039878 53.90982243 -11.03248988 50.72146044 -11.02734375 47.50390625 C-11.035914 46.32425293 -11.04448425 45.14459961 -11.05331421 43.92919922 C-11.06478795 41.43785162 -11.06581072 38.94643702 -11.05712891 36.45507812 C-11.05080309 32.64206935 -11.0977534 28.83215688 -11.1484375 25.01953125 C-11.15298311 22.59766017 -11.15439065 20.17578074 -11.15234375 17.75390625 C-11.17076324 16.61421387 -11.18918274 15.47452148 -11.2081604 14.30029297 C-11.1188212 6.66551049 -11.1188212 6.66551049 -9.1967926 3.79066467 C-6.41565515 1.297692 -3.71504452 -0.00380857 0 0 Z " fill="#CB98E4" transform="translate(30.42578125,366.37109375)"/>
<path d="M0 0 C16.5 0 33 0 50 0 C46.6350365 13.45985401 46.6350365 13.45985401 44.5 20.125 C42.60128822 26.0661304 40.79289328 32.02368907 39 38 C22.5 38 6 38 -11 38 C-7.625 24.5 -7.625 24.5 -5.95703125 19.140625 C-5.63968018 18.11485352 -5.3223291 17.08908203 -4.99536133 16.03222656 C-4.60501709 14.7840918 -4.21467285 13.53595703 -3.8125 12.25 C-2.554375 8.2075 -1.29625 4.165 0 0 Z " fill="#7EA2B1" transform="translate(288,175)"/>
<path d="M0 0 C16.5 0 33 0 50 0 C48.7572297 5.59246634 47.53592249 10.80698978 45.8359375 16.22265625 C45.4754834 17.37773682 45.1150293 18.53281738 44.74365234 19.72290039 C44.29199707 21.15496826 43.8403418 22.58703613 43.375 24.0625 C41.93125 28.661875 40.4875 33.26125 39 38 C22.5 38 6 38 -11 38 C-7.625 24.5 -7.625 24.5 -5.95703125 19.140625 C-5.63968018 18.11485352 -5.3223291 17.08908203 -4.99536133 16.03222656 C-4.60501709 14.7840918 -4.21467285 13.53595703 -3.8125 12.25 C-2.554375 8.2075 -1.29625 4.165 0 0 Z " fill="#7EA2B1" transform="translate(81,175)"/>
<path d="M0 0 C16.5 0 33 0 50 0 C47.48857505 8.78998732 44.96596356 17.56589788 42.3125 26.3125 C42.00505859 27.33794922 41.69761719 28.36339844 41.38085938 29.41992188 C41.08630859 30.39123047 40.79175781 31.36253906 40.48828125 32.36328125 C40.09443237 33.66712769 40.09443237 33.66712769 39.69262695 34.99731445 C39 37 39 37 38 38 C36.4651703 38.09319449 34.92607918 38.117458 33.38842773 38.11352539 C32.40748642 38.11344986 31.4265451 38.11337433 30.4158783 38.11329651 C29.3492244 38.10813522 28.2825705 38.10297394 27.18359375 38.09765625 C25.55430687 38.09553383 25.55430687 38.09553383 23.8921051 38.09336853 C20.40720925 38.08775048 16.92237658 38.07519492 13.4375 38.0625 C11.08138113 38.05748733 8.72526126 38.05292402 6.36914062 38.04882812 C0.57940536 38.03777519 -5.21029281 38.02101951 -11 38 C-10.50137795 34.15977098 -10.00398359 30.4988619 -8.73046875 26.8359375 C-8.35631836 25.73958984 -8.35631836 25.73958984 -7.97460938 24.62109375 C-7.58499023 23.50927734 -7.58499023 23.50927734 -7.1875 22.375 C-4.62422796 14.95815571 -2.31093926 7.51055259 0 0 Z " fill="#7EA2B1" transform="translate(185,175)"/>
<path d="M0 0 C16.17 0 32.34 0 49 0 C48.27649395 5.06454236 47.47178794 9.16328128 45.96875 13.95703125 C45.77277222 14.58606857 45.57679443 15.2151059 45.37487793 15.86320496 C44.96385874 17.1790412 44.55029638 18.49408557 44.13427734 19.80834961 C43.49667872 21.82299438 42.86683406 23.83993857 42.23828125 25.85742188 C39.16582266 35.66835467 39.16582266 35.66835467 38 38 C21.83 38 5.66 38 -11 38 C-10.33718122 32.69744976 -9.87362072 28.99629353 -8.22265625 24.1796875 C-7.87396484 23.14972656 -7.52527344 22.11976563 -7.16601562 21.05859375 C-6.80185547 20.00800781 -6.43769531 18.95742187 -6.0625 17.875 C-5.70220703 16.81667969 -5.34191406 15.75835937 -4.97070312 14.66796875 C-4.29913906 12.69656337 -3.62447634 10.72620854 -2.94555664 8.75732422 C-1.94652149 5.84405209 -0.97392123 2.9217637 0 0 Z " fill="#7EA2B1" transform="translate(392,175)"/>
<path d="M0 0 C5.80239614 -0.04934656 11.60467081 -0.08569402 17.40722656 -0.10986328 C19.38218309 -0.11993627 21.35712466 -0.13359521 23.33203125 -0.15087891 C26.16670418 -0.17507039 29.00118038 -0.18646991 31.8359375 -0.1953125 C32.72243988 -0.20563507 33.60894226 -0.21595764 34.52230835 -0.22659302 C36.68285952 -0.2269907 38.84293718 -0.12272534 41 0 C43.48850674 2.48850674 43.2461233 3.9621006 43.27789307 7.35913086 C43.2738446 8.08624268 43.26979614 8.81335449 43.265625 9.5625 C43.26849518 10.68313843 43.26849518 10.68313843 43.27142334 11.82641602 C43.27278498 13.40674171 43.26909 14.98707858 43.26074219 16.56738281 C43.250042 18.99048922 43.26063779 21.41285423 43.2734375 23.8359375 C43.2721159 25.36979331 43.2695535 26.90364865 43.265625 28.4375 C43.26967346 29.16461182 43.27372192 29.89172363 43.27789307 30.64086914 C43.22992361 35.77007639 43.22992361 35.77007639 41 38 C38.78536987 38.24050903 38.78536987 38.24050903 35.99951172 38.22705078 C34.95858368 38.22689972 33.91765564 38.22674866 32.84518433 38.22659302 C31.1545134 38.21110916 31.1545134 38.21110916 29.4296875 38.1953125 C28.27832306 38.1924826 27.12695862 38.18965271 25.94070435 38.18673706 C22.25203188 38.17551408 18.56359947 38.15040556 14.875 38.125 C12.37890975 38.11497294 9.8828157 38.10584662 7.38671875 38.09765625 C1.25773016 38.07556784 -4.87111777 38.04206947 -11 38 C-10.53964942 36.11587264 -10.07633453 34.23246944 -9.61181641 32.34936523 C-9.22529404 30.77601662 -9.22529404 30.77601662 -8.83096313 29.17088318 C-7.57729217 24.38698361 -5.99252222 19.73343811 -4.375 15.0625 C-3.75499339 13.26268742 -3.13770998 11.46193394 -2.5234375 9.66015625 C-2.25450684 8.88293213 -1.98557617 8.10570801 -1.70849609 7.30493164 C-0.96569852 4.88840789 -0.45546995 2.48530559 0 0 Z " fill="#FDD15D" transform="translate(441,175)"/>
<path d="M0 0 C0.9015683 0.00444122 1.8031366 0.00888245 2.73202515 0.01345825 C3.75293243 0.01360931 4.77383972 0.01376038 5.82568359 0.01391602 C7.48354385 0.02939987 7.48354385 0.02939987 9.17489624 0.04519653 C10.30406464 0.04802643 11.43323303 0.05085632 12.59661865 0.05377197 C16.21396345 0.06499441 19.8310634 0.09010281 23.44833374 0.11550903 C25.89624684 0.12553616 28.34416381 0.13466247 30.79208374 0.14285278 C36.80258438 0.16494047 42.81294157 0.19843829 48.82333374 0.24050903 C48.2334935 5.08700396 47.25200663 9.54130033 45.79208374 14.19754028 C45.59610596 14.82657761 45.40012817 15.45561493 45.19821167 16.10371399 C44.78719248 17.41955023 44.37363012 18.73459461 43.95761108 20.04885864 C43.32001246 22.06350342 42.6901678 24.0804476 42.06161499 26.09793091 C38.9891564 35.90886371 38.9891564 35.90886371 37.82333374 38.24050903 C32.16335328 38.28985829 26.50349738 38.32620432 20.84335327 38.35037231 C18.9168988 38.36044485 16.99045966 38.37410347 15.0640564 38.39138794 C12.29888122 38.41558144 9.53390774 38.42697939 6.76864624 38.43582153 C5.90401764 38.4461441 5.03938904 38.45646667 4.14855957 38.46710205 C2.03879853 38.46750009 -0.07047344 38.36316146 -2.17666626 38.24050903 C-4.665173 35.7520023 -4.42278956 34.27840843 -4.45455933 30.88137817 C-4.45051086 30.15426636 -4.4464624 29.42715454 -4.44229126 28.67800903 C-4.44420471 27.93091675 -4.44611816 27.18382446 -4.4480896 26.41409302 C-4.44945124 24.83376733 -4.44575626 23.25343045 -4.43740845 21.67312622 C-4.42670826 19.25001981 -4.43730405 16.8276548 -4.45010376 14.40457153 C-4.44878216 12.87071573 -4.44621976 11.33686038 -4.44229126 9.80300903 C-4.44633972 9.07589722 -4.45038818 8.3487854 -4.45455933 7.59963989 C-4.38802027 0.48485086 -4.38802027 0.48485086 0 0 Z " fill="#FED15C" transform="translate(32.176666259765625,174.75949096679688)"/>
<path d="M0 0 C1.77600586 -0.00290039 1.77600586 -0.00290039 3.58789062 -0.00585938 C4.81572266 0.01798828 6.04355469 0.04183594 7.30859375 0.06640625 C9.15614258 0.0499707 9.15614258 0.0499707 11.04101562 0.03320312 C20.08355984 0.10712038 20.08355984 0.10712038 23.09741211 2.48071289 C24.74609375 4.62890625 24.74609375 4.62890625 25.24609375 7.56640625 C24.60877146 11.47000528 23.6328749 12.92368366 20.74609375 15.62890625 C17.77936698 16.00123642 15.42753134 16.10973085 12.49609375 15.94140625 C11.75101562 15.91884766 11.0059375 15.89628906 10.23828125 15.87304688 C8.40668475 15.81434186 6.57612722 15.72466382 4.74609375 15.62890625 C4.74609375 18.59890625 4.74609375 21.56890625 4.74609375 24.62890625 C5.69871094 24.57089844 6.65132813 24.51289063 7.6328125 24.453125 C19.16628111 24.03825203 19.16628111 24.03825203 22.18359375 26.69140625 C23.74609375 29.62890625 23.74609375 29.62890625 23.80859375 33.25390625 C22.61606445 37.04194049 22.14937376 37.77409079 18.74609375 39.62890625 C15.29296875 39.921875 15.29296875 39.921875 11.49609375 39.81640625 C10.2328125 39.78933594 8.96953125 39.76226562 7.66796875 39.734375 C6.70375 39.69957031 5.73953125 39.66476562 4.74609375 39.62890625 C4.74609375 42.59890625 4.74609375 45.56890625 4.74609375 48.62890625 C5.77089844 48.5825 6.79570312 48.53609375 7.8515625 48.48828125 C9.21221031 48.45074614 10.5728898 48.41434784 11.93359375 48.37890625 C12.60712891 48.34539062 13.28066406 48.311875 13.97460938 48.27734375 C17.58027666 48.20698927 19.59538464 48.53720494 22.69921875 50.42578125 C24.74609375 52.62890625 24.74609375 52.62890625 25.30859375 56.12890625 C24.65252455 60.21111458 23.96087785 61.14100105 20.74609375 63.62890625 C16.30715297 64.45881004 11.81642003 64.23150727 7.30859375 64.19140625 C5.4668457 64.22717773 5.4668457 64.22717773 3.58789062 64.26367188 C2.40388672 64.26173828 1.21988281 64.25980469 0 64.2578125 C-1.61926392 64.25890015 -1.61926392 64.25890015 -3.27124023 64.26000977 C-7.52299295 63.36037968 -8.82037927 62.2553007 -11.25390625 58.62890625 C-11.98890683 54.6589113 -11.95444191 50.75089028 -11.91796875 46.72265625 C-11.92275238 45.56519897 -11.92753601 44.4077417 -11.9324646 43.21520996 C-11.93586325 40.77090087 -11.9266635 38.3265463 -11.90576172 35.88232422 C-11.87899902 32.14187217 -11.9055143 28.40442126 -11.9375 24.6640625 C-11.9341959 22.2877538 -11.92778967 19.91144696 -11.91796875 17.53515625 C-11.9280899 16.41733765 -11.93821106 15.29951904 -11.94863892 14.14782715 C-11.83312765 6.49205069 -11.83312765 6.49205069 -9.10327148 2.42407227 C-5.774948 0.32715147 -3.91344813 -0.00262863 0 0 Z " fill="#CC98E4" transform="translate(348.25390625,368.37109375)"/>
<path d="M0 0 C5.66002772 5.24481334 8.13369401 9.33651911 8.4375 17.125 C8.3766573 23.94698777 6.75498448 28.11849709 2 33 C-2.82245481 37.21231454 -8.70062182 38.38433706 -15 38 C-21.82040839 36.40394513 -26.12824254 33.80763619 -30 28 C-33.18705163 22.8125649 -32.57364368 16.87267717 -32 11 C-30.32884708 5.57824821 -26.51608022 2.16125615 -22 -1 C-14.84641529 -4.26576693 -6.76130829 -4.09449745 0 0 Z " fill="#A8D2D8" transform="translate(268,43)"/>
<path d="M0 0 C3.7534174 1.1601472 5.02188531 2.03444367 7.4375 5.0625 C7.94543457 7.635849 7.94543457 7.635849 7.95507812 10.57788086 C7.96768677 11.68260239 7.98029541 12.78732391 7.99328613 13.92552185 C7.98518921 15.11412308 7.97709229 16.3027243 7.96875 17.52734375 C7.9725769 18.75280411 7.97640381 19.97826447 7.98034668 21.24085999 C7.98306861 23.8323753 7.97568795 26.42391795 7.95898438 29.01538086 C7.93759931 32.98158111 7.95876951 36.94596592 7.984375 40.91210938 C7.98173142 43.4296915 7.97660581 45.94727249 7.96875 48.46484375 C7.97684692 49.65142075 7.98494385 50.83799774 7.99328613 52.06053162 C7.89978463 60.27615479 7.89978463 60.27615479 5.52929688 64.30834961 C3.28204039 66.19286617 2.33770675 66.74414466 -0.5625 66.6875 C-1.2225 66.70039063 -1.8825 66.71328125 -2.5625 66.7265625 C-5.92193334 65.61112565 -6.75474471 64.13187212 -8.5625 61.0625 C-9.18424498 56.87964087 -9.14660365 52.72265382 -9.12890625 48.5 C-9.13510483 47.27595459 -9.14130341 46.05190918 -9.14768982 44.79077148 C-9.15478736 42.20524897 -9.15161526 39.61968075 -9.13891602 37.03417969 C-9.12504947 33.07661965 -9.15912891 29.12142293 -9.19726562 25.1640625 C-9.1982168 22.65104109 -9.1963581 20.13801671 -9.19140625 17.625 C-9.20466446 16.44156006 -9.21792267 15.25812012 -9.23158264 14.03881836 C-9.12799772 4.90902913 -9.12799772 4.90902913 -6.24584961 1.78125 C-3.5625 0.0625 -3.5625 0.0625 0 0 Z " fill="#CC99E3" transform="translate(362.5625,278.9375)"/>
<path d="M0 0 C4.12593192 2.87855716 7.06537651 6.00862953 8.6875 10.875 C9.52005055 16.90504468 8.72571881 21.17702049 5.15625 26.14453125 C2.19078133 29.6384212 -0.27496783 31.57908005 -4.89453125 32.25 C-11.23077233 32.52737307 -15.32554952 31.84420548 -20.3125 27.875 C-23.9868286 22.94366425 -25.76096983 18.08951053 -25.3125 11.875 C-23.70951249 6.53799454 -21.04076852 2.90594136 -16.3125 -0.125 C-10.91330143 -1.92473286 -5.37692735 -1.82612627 0 0 Z " fill="#FEDF78" transform="translate(191.3125,298.125)"/>
<path d="M0 0 C4.35525681 1.97966219 7.27140512 4.13502943 9.85546875 8.26953125 C11.58148913 13.8907598 11.85765501 19.30227675 9.16796875 24.58203125 C5.94449548 28.32822992 2.60223753 31.90422025 -2.46484375 32.578125 C-8.83539047 32.87092172 -12.69669185 32.23597203 -17.55078125 27.96875 C-21.02180695 24.26802407 -22.30235527 20.88174617 -22.64453125 15.89453125 C-22.44386031 10.72071093 -20.56748439 7.09874397 -17.14453125 3.26953125 C-12.08488867 -1.09011223 -6.25037712 -2.12899913 0 0 Z " fill="#FEDF78" transform="translate(167.14453125,386.73046875)"/>
<path d="M0 0 C3.3 0 6.6 0 10 0 C12.49742403 2.49742403 12.23676464 3.97717611 12.25224304 7.38478088 C12.24505753 8.11502975 12.23787201 8.84527863 12.23046875 9.59765625 C12.22978142 10.72185219 12.22978142 10.72185219 12.2290802 11.86875916 C12.22605811 13.45329369 12.21817306 15.03782526 12.20581055 16.62231445 C12.18754683 19.05625858 12.18530089 21.48982262 12.18554688 23.92382812 C12.18063201 25.46094081 12.17480382 26.9980509 12.16796875 28.53515625 C12.16685593 29.26742935 12.1657431 29.99970245 12.16459656 30.75416565 C12.11605238 35.88394762 12.11605238 35.88394762 11 37 C7.37 37 3.74 37 0 37 C0 24.79 0 12.58 0 0 Z " fill="#FEC344" transform="translate(472,175)"/>
<path d="M0 0 C2.33542212 1.39298629 4.45945654 2.90550395 6.59375 4.58984375 C9.55661054 6.53013145 9.55661054 6.53013145 16 7 C16 11.95 16 16.9 16 22 C6.75321092 22.59274289 0.21514885 21.47607586 -6.95703125 15.3203125 C-9.62298759 12.51075664 -10.87165296 10.65456988 -11.625 6.8125 C-10.17623249 0.2930462 -6.25960156 -1.02616419 0 0 Z " fill="#CB97E5" transform="translate(456,409)"/>
<path d="M0 0 C7.93387004 1.13341001 7.93387004 1.13341001 11.8125 3.375 C12.93591797 4.00535156 12.93591797 4.00535156 14.08203125 4.6484375 C16 6 16 6 18 9 C18.61703539 13.05480401 18.32038101 14.54369977 15.9375 17.9375 C13 20 13 20 9.5625 20 C6 19 6 19 0 16 C0 10.72 0 5.44 0 0 Z " fill="#BE81DD" transform="translate(472,368)"/>
<path d="M0 0 C7.35678392 -0.36180905 7.35678392 -0.36180905 10 1.125 C11.47901666 3.89815624 11.38601984 5.91184125 11 9 C10 10.875 10 10.875 8 12 C5.28121737 12.24131207 2.7407889 12.1347929 0 12 C0 8.04 0 4.08 0 0 Z " fill="#FDDF79" transform="translate(36,383)"/>
<path d="M0 0 C7.37042925 -0.36248013 7.37042925 -0.36248013 10.0625 1.1875 C11 3 11 3 10.875 5.5625 C10 8 10 8 7 10 C4.66800612 10.07905064 2.33167378 10.08798769 0 10 C0 6.7 0 3.4 0 0 Z " fill="#FBDB7F" transform="translate(297,383)"/>
<path d="M0 0 C7.37042925 -0.36248013 7.37042925 -0.36248013 10.0625 1.1875 C11 3 11 3 10.875 5.5625 C10 8 10 8 7 10 C4.66800612 10.07905064 2.33167378 10.08798769 0 10 C0 6.7 0 3.4 0 0 Z " fill="#FBDB7F" transform="translate(92,383)"/>
<path d="M0 0 C7.37042925 -0.36248013 7.37042925 -0.36248013 10.0625 1.1875 C11.3945522 3.76280093 10.85352401 5.29717396 10 8 C9 9 9 9 6.93359375 9.09765625 C3.46679688 9.04882812 3.46679688 9.04882812 0 9 C0 6.03 0 3.06 0 0 Z " fill="#FDDF79" transform="translate(243,296)"/>
<path d="M0 0 C2.31 0 4.62 0 7 0 C7 2.64 7 5.28 7 8 C2.545 6.02 2.545 6.02 -2 4 C-1.34 2.68 -0.68 1.36 0 0 Z " fill="#FCDC7B" transform="translate(465,383)"/>
<path d="M0 0 C1.98 0.99 1.98 0.99 4 2 C4 3.32 4 4.64 4 6 C2.68 6.33 1.36 6.66 0 7 C0 4.69 0 2.38 0 0 Z " fill="#FCCE5F" transform="translate(472,408)"/>
</svg>
